<?xml version="1.0" standalone="no"?>
<!DOCTYPE svg PUBLIC "-//W3C//DTD SVG 20010904//EN"
 "http://www.w3.org/TR/2001/REC-SVG-20010904/DTD/svg10.dtd">
<svg version="1.0" xmlns="http://www.w3.org/2000/svg"
 width="1294.000000pt" height="1294.000000pt" viewBox="0 0 1294.000000 1294.000000"
 preserveAspectRatio="xMidYMid meet">
<metadata>
Created by potrace 1.14, written by Peter Selinger 2001-2017
</metadata>
<g transform="translate(0.000000,1294.000000) scale(0.100000,-0.100000)"
fill="#000000" stroke="none">
<path d="M6168 12935 c-2 -1 -59 -6 -128 -9 -69 -4 -132 -9 -140 -11 -8 -2
-51 -6 -95 -10 -44 -3 -111 -11 -150 -16 -168 -22 -179 -24 -270 -40 -33 -6
-69 -12 -80 -14 -42 -6 -95 -17 -225 -46 -74 -17 -143 -32 -153 -34 -10 -2
-27 -7 -37 -10 -10 -3 -28 -8 -39 -10 -85 -16 -468 -137 -646 -203 -354 -132
-729 -312 -1060 -510 -201 -121 -546 -359 -681 -471 -17 -14 -40 -33 -50 -41
-27 -21 -127 -103 -140 -115 -6 -5 -37 -32 -69 -60 -103 -89 -186 -167 -319
-301 -131 -131 -176 -179 -271 -288 -27 -32 -61 -71 -75 -86 -14 -15 -32 -36
-40 -47 -8 -10 -33 -41 -55 -68 -21 -28 -42 -52 -45 -55 -24 -22 -245 -325
-316 -435 -21 -33 -42 -62 -45 -65 -5 -4 -28 -41 -110 -178 -136 -226 -325
-595 -409 -797 -22 -55 -45 -109 -50 -120 -76 -161 -260 -748 -315 -1005 -16
-75 -56 -284 -60 -311 -3 -19 -7 -45 -10 -59 -3 -14 -12 -74 -20 -135 -9 -60
-17 -123 -20 -140 -2 -16 -7 -64 -10 -105 -4 -41 -8 -85 -10 -98 -26 -166 -26
-978 0 -1144 2 -13 6 -59 10 -103 4 -44 8 -87 10 -95 1 -8 6 -42 10 -75 4 -33
9 -69 11 -80 1 -11 5 -37 8 -57 3 -21 8 -53 11 -70 10 -65 59 -318 80 -408 6
-25 72 -282 89 -344 45 -163 196 -586 265 -741 10 -22 31 -69 47 -105 109
-252 306 -611 473 -865 47 -71 88 -134 90 -140 2 -5 7 -12 11 -15 3 -3 22 -27
40 -55 40 -59 181 -248 190 -255 3 -3 19 -23 35 -45 16 -22 43 -56 60 -75 16
-20 50 -60 75 -90 25 -29 50 -58 55 -64 253 -281 483 -508 680 -671 26 -22 53
-45 59 -50 6 -6 45 -38 86 -70 41 -33 77 -62 80 -65 5 -6 108 -82 225 -167 39
-27 104 -72 145 -99 41 -27 77 -52 78 -56 2 -5 7 -8 12 -8 4 0 58 -31 119 -70
62 -38 116 -70 121 -70 6 0 10 -4 10 -9 0 -5 8 -11 18 -15 9 -3 42 -19 72 -37
585 -333 1254 -578 1950 -714 119 -23 152 -28 238 -40 20 -3 51 -7 67 -10 33
-5 87 -13 138 -19 17 -3 64 -7 102 -11 39 -3 84 -8 100 -10 200 -26 933 -26
1145 0 14 1 57 6 95 9 67 6 86 9 180 21 57 7 285 43 320 50 42 8 126 25 150
29 17 4 181 40 225 51 317 74 802 238 1078 366 421 195 728 367 1047 587 113
78 290 207 313 230 8 7 30 25 50 40 21 15 39 29 42 32 3 3 27 24 55 45 27 22
56 47 65 55 9 8 45 40 80 70 172 148 438 414 590 590 36 41 68 77 71 80 39 34
345 437 425 560 27 41 52 77 55 80 3 3 29 43 58 90 29 47 56 92 62 100 106
170 291 524 384 735 101 227 269 686 291 789 2 10 8 33 14 51 6 18 13 41 15
51 2 10 18 71 34 134 33 123 74 307 91 405 10 60 15 87 25 135 2 14 7 48 11
75 3 28 8 58 10 69 2 10 6 44 9 75 4 31 8 67 10 81 2 14 7 57 10 95 4 39 9 84
11 100 27 227 26 875 -2 1150 -11 117 -29 265 -39 335 -2 14 -6 48 -10 75 -4
28 -8 57 -10 65 -35 188 -42 222 -50 260 -3 14 -10 47 -16 75 -5 27 -32 136
-59 242 -220 853 -633 1681 -1183 2373 -87 109 -120 149 -210 254 -150 174
-420 443 -596 596 -35 30 -69 60 -75 65 -9 9 -138 113 -186 152 -8 6 -40 32
-70 56 -30 24 -120 89 -200 145 -80 56 -149 105 -155 109 -29 23 -208 133
-216 133 -5 0 -9 4 -9 8 0 4 -19 18 -42 30 -24 12 -50 26 -58 32 -107 71 -501
269 -720 362 -317 134 -699 262 -960 323 -8 2 -62 15 -120 28 -186 44 -383 82
-483 92 -22 3 -47 7 -56 9 -9 3 -38 8 -66 11 -96 11 -140 16 -175 20 -19 3
-71 8 -115 11 -44 3 -100 8 -125 10 -49 6 -736 14 -742 9z"/>
</g>
</svg>
